<?xml version="1.0" standalone="no"?>
<!DOCTYPE svg PUBLIC "-//W3C//DTD SVG 20010904//EN"
 "http://www.w3.org/TR/2001/REC-SVG-20010904/DTD/svg10.dtd">
<svg version="1.0" xmlns="http://www.w3.org/2000/svg"
 width="344.000000pt" height="346.000000pt" viewBox="0 0 344.000000 346.000000"
 preserveAspectRatio="xMidYMid meet">

<g transform="translate(0.000000,346.000000) scale(0.100000,-0.100000)"
fill="#000000" stroke="none">
<path d="M297 3453 c-4 -3 -7 -68 -7 -144 l0 -138 -137 -3 -138 -3 0 -435 0
-435 137 -3 137 -3 3 -142 3 -142 428 -3 427 -2 0 -270 0 -270 -427 -2 -428
-3 -3 -142 -3 -142 -137 -3 -137 -3 0 -435 0 -435 137 -3 137 -3 3 -137 3
-137 435 0 435 0 3 138 3 137 132 0 c90 0 137 4 145 12 9 9 12 118 12 430 l0
418 270 0 270 0 2 -427 3 -428 142 -3 142 -3 3 -137 3 -137 435 0 435 0 3 138
3 137 134 0 135 0 0 440 0 440 -135 0 -134 0 -3 143 -3 142 -427 3 -428 2 0
270 0 270 428 2 427 3 3 143 3 142 134 0 135 0 0 440 0 440 -135 0 -135 0 0
135 c0 122 -2 135 -19 145 -13 6 -166 9 -438 7 l-418 -2 -3 -142 -3 -142 -142
-3 -142 -3 -3 -425 -2 -425 -274 3 -275 3 2 422 1 422 -142 3 -141 3 -3 142
-3 142 -431 3 c-237 1 -434 -1 -437 -5z m853 -723 l0 -410 -420 0 -420 0 0
410 0 410 420 0 420 0 0 -410z m1990 -5 l0 -415 -415 0 -415 0 0 415 0 415
415 0 415 0 0 -415z m-1140 -995 l0 -270 -270 0 -270 0 0 224 c0 123 -3 244
-6 270 l-7 46 277 0 276 0 0 -270z m-850 -995 l0 -415 -420 0 -420 0 0 415 0
415 420 0 420 0 0 -415z m1990 0 l0 -415 -415 0 -415 0 0 415 0 415 415 0 415
0 0 -415z"/>
</g>
</svg>
